<svg width="1073" height="242" viewBox="0 0 1073 242" fill="none" xmlns="http://www.w3.org/2000/svg">
<g clip-path="url(#clip0_301_2)">
<path d="M44.1603 201.32C44.1603 207.88 44.3203 213.08 44.6403 216.92C44.9603 220.6 45.7603 223.48 47.0403 225.56C48.4803 227.48 50.4803 228.76 53.0403 229.4C55.7603 230.04 59.4403 230.52 64.0803 230.84V239H1.20031V230.84C5.68031 230.52 9.20031 230.04 11.7603 229.4C14.4803 228.76 16.5603 227.48 18.0003 225.56C19.4403 223.64 20.3203 220.92 20.6403 217.4C21.1203 213.88 21.3603 209.08 21.3603 203V171.08C21.3603 152.04 20.8803 140.44 19.9203 136.28C19.4403 134.2 18.8003 132.52 18.0003 131.24C17.3603 129.8 16.3203 128.76 14.8803 128.12C13.4403 127.32 11.6003 126.84 9.36031 126.68C7.12031 126.36 4.24031 126.2 0.720313 126.2V118.52L39.1203 109.4L42.0003 133.16H42.9603C49.0403 125.64 56.1603 119.8 64.3203 115.64C72.4803 111.48 81.3603 109.4 90.9603 109.4C98.3203 109.4 105.04 110.6 111.12 113C117.2 115.4 121.84 118.68 125.04 122.84C127.76 126.52 129.68 131.32 130.8 137.24C131.92 143 132.48 151 132.48 161.24V201.32C132.48 207.88 132.64 213.08 132.96 216.92C133.44 220.6 134.32 223.48 135.6 225.56C136.88 227.48 138.8 228.76 141.36 229.4C144.08 230.04 147.6 230.52 151.92 230.84V239H89.7603V230.84C94.2403 230.68 97.7603 230.28 100.32 229.64C103.04 228.84 105.04 227.48 106.32 225.56C107.76 223.64 108.64 220.92 108.96 217.4C109.44 213.72 109.68 208.92 109.68 203V171.32C109.68 162.2 109.2 154.52 108.24 148.28C107.28 142.04 105.68 137 103.44 133.16C101.36 129.32 98.5603 126.6 95.0403 125C91.5203 123.24 87.2803 122.36 82.3203 122.36C75.1203 122.36 68.4803 124.28 62.4003 128.12C56.4803 131.8 51.8403 136.92 48.4803 143.48C47.6803 145.08 46.9603 146.6 46.3203 148.04C45.8403 149.48 45.4403 151.16 45.1203 153.08C44.8003 155 44.5603 157.24 44.4003 159.8C44.2403 162.2 44.1603 165.32 44.1603 169.16V201.32ZM241.549 167.96C232.429 171.48 224.669 174.92 218.269 178.28C212.029 181.64 206.989 185 203.149 188.36C199.309 191.72 196.509 195.08 194.749 198.44C193.149 201.8 192.349 205.24 192.349 208.76C192.349 214.04 194.109 218.36 197.629 221.72C201.149 225.08 205.789 226.76 211.549 226.76C215.709 226.76 219.549 225.72 223.069 223.64C226.749 221.56 229.949 218.76 232.669 215.24C235.389 211.56 237.549 207.32 239.149 202.52C240.749 197.56 241.549 192.36 241.549 186.92V167.96ZM241.549 157.64V147.8C241.549 128.28 233.229 118.52 216.589 118.52C213.869 118.52 211.549 118.76 209.629 119.24C207.709 119.72 206.109 120.52 204.829 121.64C203.549 122.76 202.349 124.36 201.229 126.44C200.269 128.52 199.309 131.08 198.349 134.12C196.589 138.76 194.829 141.88 193.069 143.48C191.469 144.92 189.069 145.64 185.869 145.64C177.869 145.64 173.869 141.64 173.869 133.64C173.869 125.96 177.949 120.04 186.109 115.88C194.269 111.56 205.869 109.4 220.909 109.4C236.909 109.4 248.269 112.28 254.989 118.04C261.709 123.64 265.069 133.24 265.069 146.84V200.6C265.069 218.84 268.669 227.96 275.869 227.96C278.109 227.96 280.269 227.72 282.349 227.24C284.429 226.6 286.189 225.08 287.629 222.68L290.989 228.44C289.069 232.12 285.549 235.24 280.429 237.8C275.309 240.2 269.949 241.4 264.349 241.4C257.309 241.4 252.029 239.16 248.509 234.68C245.149 230.2 243.469 223.88 243.469 215.72H242.269C238.109 223.56 232.349 229.8 224.989 234.44C217.629 238.92 209.469 241.16 200.509 241.16C190.429 241.16 182.509 238.6 176.749 233.48C170.989 228.36 168.109 221.48 168.109 212.84C168.109 209 168.749 205.32 170.029 201.8C171.469 198.28 173.709 194.92 176.749 191.72C179.789 188.52 183.789 185.4 188.749 182.36C193.709 179.16 199.789 175.96 206.989 172.76L241.549 157.64ZM343.72 200.6C343.72 207.32 343.88 212.6 344.2 216.44C344.52 220.28 345.32 223.24 346.6 225.32C348.04 227.24 350.04 228.52 352.6 229.16C355.16 229.8 358.76 230.28 363.4 230.6V239H299.56V230.6C304.2 230.28 307.88 229.8 310.6 229.16C313.32 228.52 315.4 227.24 316.84 225.32C318.28 223.4 319.16 220.68 319.48 217.16C319.96 213.48 320.2 208.6 320.2 202.52V171.8C320.2 162.68 320.04 155.08 319.72 149C319.56 142.92 319.16 138.76 318.52 136.52C318.04 134.44 317.48 132.84 316.84 131.72C316.2 130.44 315.16 129.48 313.72 128.84C312.28 128.04 310.36 127.56 307.96 127.4C305.72 127.08 302.76 126.92 299.08 126.92V118.52L338.2 109.4L341.32 133.4H342.52C349.72 125.24 357.24 119.24 365.08 115.4C373.08 111.4 381.88 109.4 391.48 109.4C401.56 109.4 410.04 111.48 416.92 115.64C423.8 119.64 428.6 125.48 431.32 133.16H432.28C438.2 125.64 445.4 119.8 453.88 115.64C462.36 111.48 471.4 109.4 481 109.4C488.52 109.4 495.32 110.68 501.4 113.24C507.64 115.64 512.36 119 515.56 123.32C518.44 127 520.44 131.88 521.56 137.96C522.84 143.88 523.48 152.04 523.48 162.44V200.6C523.48 207.16 523.64 212.36 523.96 216.2C524.44 220.04 525.32 223 526.6 225.08C527.88 227.16 529.8 228.52 532.36 229.16C535.08 229.8 538.76 230.28 543.4 230.6V239H479.56V230.6C484.04 230.44 487.64 230.04 490.36 229.4C493.08 228.6 495.16 227.24 496.6 225.32C498.04 223.24 498.92 220.44 499.24 216.92C499.72 213.4 499.96 208.6 499.96 202.52V172.28C499.96 163.16 499.48 155.48 498.52 149.24C497.56 142.84 495.96 137.72 493.72 133.88C491.48 129.88 488.52 127 484.84 125.24C481.32 123.48 477 122.6 471.88 122.6C464.84 122.6 458.2 124.6 451.96 128.6C445.88 132.44 441.08 137.64 437.56 144.2C436.76 145.8 436.04 147.4 435.4 149C434.92 150.44 434.52 152.12 434.2 154.04C433.88 155.8 433.64 157.96 433.48 160.52C433.48 163.08 433.48 166.28 433.48 170.12V200.6C433.48 207.16 433.64 212.36 433.96 216.2C434.28 220.04 435.08 223 436.36 225.08C437.8 227.16 439.88 228.52 442.6 229.16C445.32 229.8 449 230.28 453.64 230.6V239H389.8V230.6C394.28 230.28 397.88 229.8 400.6 229.16C403.32 228.52 405.32 227.24 406.6 225.32C408.04 223.4 408.92 220.68 409.24 217.16C409.72 213.48 409.96 208.6 409.96 202.52V172.28C409.96 163 409.48 155.24 408.52 149C407.56 142.6 405.96 137.48 403.72 133.64C401.64 129.64 398.84 126.84 395.32 125.24C391.8 123.48 387.48 122.6 382.36 122.6C375.16 122.6 368.36 124.6 361.96 128.6C355.72 132.44 351 137.64 347.8 144.2C347 145.8 346.28 147.4 345.64 149C345.16 150.44 344.76 152.12 344.44 154.04C344.12 155.8 343.88 157.96 343.72 160.52C343.72 163.08 343.72 166.28 343.72 170.12V200.6ZM673.538 216.68C659.938 233.16 643.058 241.4 622.898 241.4C613.458 241.4 604.898 239.88 597.218 236.84C589.538 233.64 582.898 229.24 577.298 223.64C571.858 217.88 567.618 211.08 564.578 203.24C561.538 195.24 560.018 186.44 560.018 176.84C560.018 167.08 561.618 158.04 564.818 149.72C568.018 141.4 572.498 134.28 578.258 128.36C584.178 122.44 591.138 117.8 599.138 114.44C607.298 111.08 616.178 109.4 625.778 109.4C641.298 109.4 653.298 113.64 661.778 122.12C670.258 130.44 674.498 142.44 674.498 158.12C674.498 160.36 674.018 161.72 673.058 162.2C672.258 162.68 670.258 162.92 667.058 162.92H588.098C587.778 164.2 587.538 165.8 587.378 167.72C587.218 169.48 587.138 171.48 587.138 173.72C587.138 182.04 588.098 189.64 590.018 196.52C592.098 203.24 594.978 209 598.658 213.8C602.498 218.6 606.978 222.36 612.098 225.08C617.378 227.64 623.218 228.92 629.618 228.92C636.338 228.92 642.578 227.48 648.338 224.6C654.098 221.56 660.018 216.68 666.098 209.96L673.538 216.68ZM633.938 151.88C637.138 151.88 639.698 151.8 641.618 151.64C643.538 151.48 644.978 151.16 645.938 150.68C646.898 150.2 647.538 149.56 647.858 148.76C648.178 147.8 648.338 146.6 648.338 145.16C648.338 137.8 645.938 131.96 641.138 127.64C636.498 123.16 630.098 120.92 621.938 120.92C604.658 120.92 593.938 131.24 589.778 151.88H633.938ZM811.116 216.68C797.516 233.16 780.636 241.4 760.476 241.4C751.036 241.4 742.476 239.88 734.796 236.84C727.116 233.64 720.476 229.24 714.876 223.64C709.436 217.88 705.196 211.08 702.156 203.24C699.116 195.24 697.596 186.44 697.596 176.84C697.596 167.08 699.196 158.04 702.396 149.72C705.596 141.4 710.076 134.28 715.836 128.36C721.756 122.44 728.716 117.8 736.716 114.44C744.876 111.08 753.756 109.4 763.356 109.4C778.876 109.4 790.876 113.64 799.356 122.12C807.836 130.44 812.076 142.44 812.076 158.12C812.076 160.36 811.596 161.72 810.636 162.2C809.836 162.68 807.836 162.92 804.636 162.92H725.676C725.356 164.2 725.116 165.8 724.956 167.72C724.796 169.48 724.716 171.48 724.716 173.72C724.716 182.04 725.676 189.64 727.596 196.52C729.676 203.24 732.556 209 736.236 213.8C740.076 218.6 744.556 222.36 749.676 225.08C754.956 227.64 760.796 228.92 767.196 228.92C773.916 228.92 780.156 227.48 785.916 224.6C791.676 221.56 797.596 216.68 803.676 209.96L811.116 216.68ZM771.516 151.88C774.716 151.88 777.276 151.8 779.196 151.64C781.116 151.48 782.556 151.16 783.516 150.68C784.476 150.2 785.116 149.56 785.436 148.76C785.756 147.8 785.916 146.6 785.916 145.16C785.916 137.8 783.516 131.96 778.716 127.64C774.076 123.16 767.676 120.92 759.516 120.92C742.236 120.92 731.516 131.24 727.356 151.88H771.516ZM876.694 200.84C876.694 207.4 876.854 212.6 877.174 216.44C877.494 220.28 878.294 223.24 879.574 225.32C881.014 227.24 883.014 228.52 885.574 229.16C888.134 229.8 891.734 230.28 896.374 230.6V239H832.534V230.6C837.174 230.44 840.854 230.04 843.574 229.4C846.294 228.6 848.374 227.24 849.814 225.32C851.254 223.4 852.134 220.68 852.454 217.16C852.934 213.48 853.174 208.6 853.174 202.52V174.44C853.174 163.56 853.014 155.08 852.694 149C852.534 142.92 851.734 138.44 850.294 135.56C849.014 132.68 846.934 131 844.054 130.52C841.174 129.88 837.174 129.56 832.054 129.56V121.16L874.054 112.04L877.414 141.8H878.374C880.454 137 883.014 132.6 886.054 128.6C889.254 124.6 892.694 121.24 896.374 118.52C900.054 115.64 903.894 113.4 907.894 111.8C911.894 110.2 915.974 109.4 920.134 109.4C925.254 109.4 929.254 110.68 932.134 113.24C935.174 115.64 936.694 118.92 936.694 123.08C936.694 126.92 935.494 129.96 933.094 132.2C930.694 134.28 927.254 135.32 922.774 135.32C920.214 135.32 918.054 135 916.294 134.36C914.534 133.72 912.934 133.08 911.494 132.44C910.214 131.64 908.934 130.92 907.654 130.28C906.534 129.64 905.254 129.32 903.814 129.32C899.494 129.32 895.174 132.12 890.854 137.72C886.534 143.16 883.174 150.12 880.774 158.6C879.494 163.24 878.454 168.52 877.654 174.44C877.014 180.2 876.694 186.28 876.694 192.68V200.84ZM1021.55 167.96C1012.43 171.48 1004.67 174.92 998.269 178.28C992.029 181.64 986.989 185 983.149 188.36C979.309 191.72 976.509 195.08 974.749 198.44C973.149 201.8 972.349 205.24 972.349 208.76C972.349 214.04 974.109 218.36 977.629 221.72C981.149 225.08 985.789 226.76 991.549 226.76C995.709 226.76 999.549 225.72 1003.07 223.64C1006.75 221.56 1009.95 218.76 1012.67 215.24C1015.39 211.56 1017.55 207.32 1019.15 202.52C1020.75 197.56 1021.55 192.36 1021.55 186.92V167.96ZM1021.55 157.64V147.8C1021.55 128.28 1013.23 118.52 996.589 118.52C993.869 118.52 991.549 118.76 989.629 119.24C987.709 119.72 986.109 120.52 984.829 121.64C983.549 122.76 982.349 124.36 981.229 126.44C980.269 128.52 979.309 131.08 978.349 134.12C976.589 138.76 974.829 141.88 973.069 143.48C971.469 144.92 969.069 145.64 965.869 145.64C957.869 145.64 953.869 141.64 953.869 133.64C953.869 125.96 957.949 120.04 966.109 115.88C974.269 111.56 985.869 109.4 1000.91 109.4C1016.91 109.4 1028.27 112.28 1034.99 118.04C1041.71 123.64 1045.07 133.24 1045.07 146.84V200.6C1045.07 218.84 1048.67 227.96 1055.87 227.96C1058.11 227.96 1060.27 227.72 1062.35 227.24C1064.43 226.6 1066.19 225.08 1067.63 222.68L1070.99 228.44C1069.07 232.12 1065.55 235.24 1060.43 237.8C1055.31 240.2 1049.95 241.4 1044.35 241.4C1037.31 241.4 1032.03 239.16 1028.51 234.68C1025.15 230.2 1023.47 223.88 1023.47 215.72H1022.27C1018.11 223.56 1012.35 229.8 1004.99 234.44C997.629 238.92 989.469 241.16 980.509 241.16C970.429 241.16 962.509 238.6 956.749 233.48C950.989 228.36 948.109 221.48 948.109 212.84C948.109 209 948.749 205.32 950.029 201.8C951.469 198.28 953.709 194.92 956.749 191.72C959.789 188.52 963.789 185.4 968.749 182.36C973.709 179.16 979.789 175.96 986.989 172.76L1021.55 157.64Z" fill="white"/>
<path d="M284.492 93.1359C240.968 98.3436 215.503 99.1427 170.461 96.6111C160.948 83.7996 152.842 62.5896 135 7.64549C149.024 24.2832 156.308 30.3386 171.852 35.4473C178.99 33.1508 185.791 24.0986 197.578 2.78018C213.13 24.3791 219.606 32.654 225.391 37.5324C237.072 23.7767 243.078 14.4361 253.203 0C260.323 18.2982 265.228 27.7513 276.148 36.8373C291.892 27.5207 299.922 21.5711 313 9.73062C312.94 20.2415 311.285 25.2226 310.219 31.277C310.587 32.3179 294.777 73.9593 284.492 93.1359Z" fill="white" stroke="white"/>
</g>
<defs>
<clipPath id="clip0_301_2">
<rect width="1073" height="242" fill="white"/>
</clipPath>
</defs>
</svg>
